<svg width="238" height="80" viewBox="0 0 238 80" fill="none" xmlns="http://www.w3.org/2000/svg">
<g clip-path="url(#clip0_71_4589)">
<path d="M26.6146 32.075C26.6146 35.5582 23.7905 38.3823 20.3073 38.3823C16.8241 38.3823 14 35.5582 14 32.075C14 28.5918 16.8241 25.7677 20.3073 25.7677C23.7905 25.7677 26.6146 28.5918 26.6146 32.075Z" fill="white"/>
<path d="M42.3823 32.075C42.3823 35.5582 39.5582 38.3823 36.075 38.3823C32.5919 38.3823 29.7677 35.5582 29.7677 32.075C29.7677 28.5918 32.5919 25.7677 36.075 25.7677C39.5582 25.7677 42.3823 28.5918 42.3823 32.075Z" fill="white"/>
<path d="M26.6146 47.8428C26.6146 51.3259 23.7905 54.1501 20.3073 54.1501C16.8241 54.1501 14 51.327 14 47.8428C14 44.3596 16.8241 41.5355 20.3073 41.5355C23.7905 41.5355 26.6146 44.3596 26.6146 47.8428Z" fill="white"/>
<path d="M42.3823 47.8428C42.3823 51.3259 39.5582 54.1501 36.075 54.1501C32.5919 54.1501 29.7677 51.3259 29.7677 47.8428C29.7677 44.3596 32.5919 41.5355 36.075 41.5355C39.5582 41.5355 42.3823 44.3596 42.3823 47.8428Z" fill="white"/>
<path d="M26.6146 16.3073C26.6146 19.7905 23.7905 22.6146 20.3073 22.6146C16.8241 22.6146 14 19.7905 14 16.3073C14 12.8241 16.8241 10 20.3073 10C23.7905 10 26.6146 12.8241 26.6146 16.3073Z" fill="white"/>
<path d="M42.3823 16.3073C42.3823 19.7905 39.5582 22.6146 36.075 22.6146C32.5919 22.6146 29.7677 19.7905 29.7677 16.3073C29.7677 12.8241 32.5919 10 36.075 10C39.5582 10 42.3823 12.8241 42.3823 16.3073Z" fill="white"/>
<path d="M58.1501 16.3073C58.1501 19.7905 55.3259 22.6146 51.8428 22.6146C48.3596 22.6146 45.5355 19.7905 45.5355 16.3073C45.5365 12.8241 48.3596 10 51.8428 10C55.3259 10 58.1501 12.8241 58.1501 16.3073Z" fill="white"/>
<path d="M58.1501 32.075C58.1501 35.5582 55.3259 38.3823 51.8428 38.3823C48.3596 38.3823 45.5355 35.5582 45.5355 32.075C45.5355 28.5918 48.3596 25.7677 51.8428 25.7677C55.3259 25.7677 58.1501 28.5918 58.1501 32.075Z" fill="white"/>
<path d="M26.6146 63.6115C26.6146 67.0947 23.7905 69.9188 20.3073 69.9188C16.8241 69.9188 14 67.0947 14 63.6115C14 60.1283 16.8241 57.3042 20.3073 57.3042C23.7905 57.3042 26.6146 60.1273 26.6146 63.6115Z" fill="white"/>
<path d="M58.1501 47.8428C58.1501 51.3259 55.3259 54.1501 51.8428 54.1501C48.3596 54.1501 45.5355 51.3259 45.5355 47.8428C45.5355 44.3596 48.3596 41.5355 51.8428 41.5355C55.3259 41.5355 58.1501 44.3596 58.1501 47.8428Z" fill="white"/>
<path d="M113.451 24.4538C113.451 32.0875 107.651 38.0617 99.7726 38.0617H90.5513V53.5714H83.4064V10.823H99.7726C107.651 10.823 113.451 16.9423 113.451 24.4538ZM106.246 24.4538C106.246 20.9122 103.498 17.663 99.7726 17.663H90.5513V31.2217H99.7726C103.498 31.2207 106.246 28.0561 106.246 24.4538Z" fill="white"/>
<path d="M133.915 23.4637V29.6927C132.938 29.4483 131.9 29.2655 130.923 29.2655C126.587 29.2655 123.045 32.2578 123.045 37.6314V53.5693H116.266V23.7081H123.045V27.678C124.816 24.8079 127.564 23.0981 131.105 23.0981C132.021 23.0981 132.999 23.2809 133.915 23.4637Z" fill="white"/>
<path d="M164.692 38.6695C164.692 47.5242 157.914 54.1803 149.181 54.1803C140.449 54.1803 133.731 47.5242 133.731 38.6695C133.731 29.8149 140.449 23.0971 149.181 23.0971C157.914 23.0982 164.692 29.8149 164.692 38.6695ZM140.448 38.6695C140.448 43.7381 144.234 47.6464 149.18 47.6464C154.127 47.6464 157.974 43.7381 157.974 38.6695C157.974 33.5403 154.127 29.631 149.18 29.631C144.234 29.6321 140.448 33.5403 140.448 38.6695Z" fill="white"/>
<path d="M182.286 53.5704H176.423L163.905 23.7081H171.294L179.355 44.4714L187.355 23.7081H194.805L182.286 53.5704Z" fill="white"/>
<path d="M223.817 40.2571H200.795C201.466 45.0207 204.581 48.013 209.65 48.013C213.313 48.013 216.183 46.3033 216.794 43.7381H223.634C222.536 50.0277 216.856 54.1803 209.528 54.1803C200.796 54.1803 194.018 47.402 194.018 38.4857C194.018 29.8138 200.796 23.0971 209.406 23.0971C217.467 23.0971 224.001 29.2645 224.001 37.9969C224 38.7917 223.939 39.6471 223.817 40.2571ZM216.611 35.0663C216.183 31.3408 213.13 28.7151 209.039 28.7151C205.008 28.7151 202.077 31.2186 201.039 35.0663H216.611Z" fill="white"/>
</g>
<defs>
<clipPath id="clip0_71_4589">
<rect width="210" height="59.9188" fill="white" transform="translate(14 10)"/>
</clipPath>
</defs>
</svg>
