<svg width="84" height="24" viewBox="0 0 84 24" fill="none" xmlns="http://www.w3.org/2000/svg">
<g clip-path="url(#clip0_3264_1271)">
<path d="M5.04584 8.83005C5.04584 10.2233 3.91619 11.353 2.52292 11.353C1.12965 11.353 0 10.2233 0 8.83005C0 7.43678 1.12965 6.30713 2.52292 6.30713C3.91619 6.30713 5.04584 7.43678 5.04584 8.83005Z" fill="black"/>
<path d="M11.353 8.83005C11.353 10.2233 10.2233 11.353 8.83005 11.353C7.43678 11.353 6.30713 10.2233 6.30713 8.83005C6.30713 7.43678 7.43678 6.30713 8.83005 6.30713C10.2233 6.30713 11.353 7.43678 11.353 8.83005Z" fill="black"/>
<path d="M5.04584 15.1372C5.04584 16.5304 3.91619 17.6601 2.52292 17.6601C1.12965 17.6601 0 16.5309 0 15.1372C0 13.7439 1.12965 12.6143 2.52292 12.6143C3.91619 12.6143 5.04584 13.7439 5.04584 15.1372Z" fill="black"/>
<path d="M11.353 15.1372C11.353 16.5304 10.2233 17.6601 8.83005 17.6601C7.43678 17.6601 6.30713 16.5304 6.30713 15.1372C6.30713 13.7439 7.43678 12.6143 8.83005 12.6143C10.2233 12.6143 11.353 13.7439 11.353 15.1372Z" fill="black"/>
<path d="M5.04584 2.52292C5.04584 3.91619 3.91619 5.04584 2.52292 5.04584C1.12965 5.04584 0 3.91619 0 2.52292C0 1.12965 1.12965 0 2.52292 0C3.91619 0 5.04584 1.12965 5.04584 2.52292Z" fill="black"/>
<path d="M11.353 2.52292C11.353 3.91619 10.2233 5.04584 8.83005 5.04584C7.43678 5.04584 6.30713 3.91619 6.30713 2.52292C6.30713 1.12965 7.43678 0 8.83005 0C10.2233 0 11.353 1.12965 11.353 2.52292Z" fill="black"/>
<path d="M17.6601 2.52292C17.6601 3.91619 16.5304 5.04584 15.1372 5.04584C13.7439 5.04584 12.6143 3.91619 12.6143 2.52292C12.6147 1.12965 13.7439 0 15.1372 0C16.5304 0 17.6601 1.12965 17.6601 2.52292Z" fill="black"/>
<path d="M17.6601 8.83005C17.6601 10.2233 16.5304 11.353 15.1372 11.353C13.7439 11.353 12.6143 10.2233 12.6143 8.83005C12.6143 7.43678 13.7439 6.30713 15.1372 6.30713C16.5304 6.30713 17.6601 7.43678 17.6601 8.83005Z" fill="black"/>
<path d="M5.04584 21.4448C5.04584 22.8381 3.91619 23.9677 2.52292 23.9677C1.12965 23.9677 0 22.8381 0 21.4448C0 20.0515 1.12965 18.9219 2.52292 18.9219C3.91619 18.9219 5.04584 20.0511 5.04584 21.4448Z" fill="black"/>
<path d="M17.6601 15.1372C17.6601 16.5304 16.5304 17.6601 15.1372 17.6601C13.7439 17.6601 12.6143 16.5304 12.6143 15.1372C12.6143 13.7439 13.7439 12.6143 15.1372 12.6143C16.5304 12.6143 17.6601 13.7439 17.6601 15.1372Z" fill="black"/>
<path d="M39.7805 5.78143C39.7805 8.83492 37.4602 11.2246 34.3089 11.2246H30.6204V17.4285H27.7625V0.329102H34.3089C37.4602 0.329102 39.7805 2.77682 39.7805 5.78143ZM36.8983 5.78143C36.8983 4.36477 35.7991 3.06508 34.3089 3.06508H30.6204V8.48859H34.3089C35.7991 8.48817 36.8983 7.22232 36.8983 5.78143Z" fill="black"/>
<path d="M47.9657 5.38548V7.87707C47.5751 7.77931 47.1599 7.7062 46.7688 7.7062C45.0347 7.7062 43.6176 8.90311 43.6176 11.0525V17.4277H40.9062V5.48324H43.6176V7.07118C44.3261 5.92315 45.4253 5.23926 46.8419 5.23926C47.2083 5.23926 47.5994 5.31237 47.9657 5.38548Z" fill="black"/>
<path d="M60.2767 11.4677C60.2767 15.0096 57.5654 17.6721 54.0724 17.6721C50.5794 17.6721 47.8923 15.0096 47.8923 11.4677C47.8923 7.92587 50.5794 5.23877 54.0724 5.23877C57.5654 5.23919 60.2767 7.92587 60.2767 11.4677ZM50.579 11.4677C50.579 13.4952 52.0934 15.0585 54.072 15.0585C56.0506 15.0585 57.5896 13.4952 57.5896 11.4677C57.5896 9.41606 56.0506 7.85235 54.072 7.85235C52.0934 7.85276 50.579 9.41606 50.579 11.4677Z" fill="black"/>
<path d="M67.314 17.4278H64.9691L59.9617 5.48291H62.9174L66.1418 13.7882L69.3419 5.48291H72.3218L67.314 17.4278Z" fill="black"/>
<path d="M83.9267 12.1028H74.7178C74.9864 14.0082 76.2322 15.2051 78.2596 15.2051C79.7252 15.2051 80.8732 14.5212 81.1176 13.4952H83.8536C83.4141 16.011 81.1422 17.6721 78.2112 17.6721C74.7182 17.6721 72.0068 14.9607 72.0068 11.3942C72.0068 7.92546 74.7182 5.23877 78.1623 5.23877C81.3866 5.23877 84.0002 7.70571 84.0002 11.1987C83.9998 11.5166 83.9756 11.8588 83.9267 12.1028ZM81.0441 10.0264C80.8732 8.53624 79.6516 7.48596 78.0152 7.48596C76.403 7.48596 75.2308 8.48736 74.8155 10.0264H81.0441Z" fill="black"/>
</g>
<defs>
<clipPath id="clip0_3264_1271">
<rect width="84" height="23.9675" fill="white"/>
</clipPath>
</defs>
</svg>
